<svg id="sw-js-blob-svg" viewBox="0 0 100 100" xmlns="http://www.w3.org/2000/svg">
  <path fill="black" d="M25.7,-30.8C33.2,-24.4,39.1,-16.1,40.7,-7.1C42.4,1.9,39.8,11.7,34.6,19.5C29.5,27.4,21.9,33.4,13.8,35.2C5.7,36.9,-3,34.4,-11.4,31.3C-19.9,28.3,-28.1,24.6,-32,18.3C-35.8,11.9,-35.3,2.9,-33.2,-5.3C-31.1,-13.5,-27.3,-20.8,-21.5,-27.5C-15.7,-34.2,-7.9,-40.3,0.6,-41C9.1,-41.7,18.2,-37.2,25.7,-30.8Z" width="100%" height="100%" transform="translate(50 50)" stroke-width="0" style="transition: 0.3s;" stroke="black"></path>
</svg>
